<?xml version="1.0" encoding="UTF-8" standalone="no"?>
<!DOCTYPE svg PUBLIC "-//W3C//DTD SVG 1.1//EN" "http://www.w3.org/Graphics/SVG/1.1/DTD/svg11.dtd">
<svg version="1.1" xmlns="http://www.w3.org/2000/svg" xmlns:xlink="http://www.w3.org/1999/xlink" preserveAspectRatio="xMidYMid meet" viewBox="0 0 132.283 132.283" width="132.28" height="132.28"><defs><path d="M50.08 29.64C56.19 39.24 55.48 50.66 48.48 55.12C41.48 59.57 30.83 55.4 24.71 45.79C18.6 36.19 19.31 24.77 26.31 20.32C33.31 15.86 43.96 20.04 50.08 29.64Z" id="a6sC3ZOOZM"></path><path d="M43.59 3.52C54.95 4.21 63.77 11.5 63.27 19.78C62.76 28.07 53.13 34.23 41.76 33.54C30.4 32.85 21.58 25.56 22.08 17.28C22.59 9 32.22 2.83 43.59 3.52Z" id="g1u05yzUPT"></path><path d="M30.07 47.2C30.07 58.59 23.33 67.83 15.03 67.83C6.74 67.83 0 58.59 0 47.2C0 35.82 6.74 26.57 15.03 26.57C23.33 26.57 30.07 35.82 30.07 47.2Z" id="aBYh17ITd"></path><path d="M35.66 18.53C35.66 28.76 27.67 37.06 17.83 37.06C7.99 37.06 0 28.76 0 18.53C0 8.3 7.99 0 17.83 0C27.67 0 35.66 8.3 35.66 18.53Z" id="b20DnIjMOz"></path><path d="M5.24 0C8.14 0 10.49 2.35 10.49 5.24C10.49 29.51 10.49 97.06 10.49 121.33C10.49 124.23 8.14 126.57 5.24 126.57C4.2 126.57 6.29 126.57 5.24 126.57C2.35 126.57 0 124.23 0 121.33C0 97.06 0 29.51 0 5.24C0 2.35 2.35 0 5.24 0C6.29 0 4.2 0 5.24 0Z" id="ef03tdanv"></path><path d="M0 5.24C0 2.35 2.35 0 5.24 0C29.51 0 97.06 0 121.33 0C124.23 0 126.57 2.35 126.57 5.24C126.57 6.29 126.57 4.2 126.57 5.24C126.57 8.14 124.23 10.49 121.33 10.49C97.06 10.49 29.51 10.49 5.24 10.49C2.35 10.49 0 8.14 0 5.24C0 4.2 0 6.29 0 5.24Z" id="cmE7WtoZT"></path></defs><g><g><g><use xlink:href="#a6sC3ZOOZM" opacity="1" fill="#fa2b2b" fill-opacity="1"></use></g><g><use xlink:href="#g1u05yzUPT" opacity="1" fill="#fa2b2b" fill-opacity="1"></use></g><g><use xlink:href="#aBYh17ITd" opacity="1" fill="#fa2b2b" fill-opacity="1"></use></g><g><use xlink:href="#b20DnIjMOz" opacity="1" fill="#eaff00" fill-opacity="1"></use></g><g><use xlink:href="#ef03tdanv" opacity="1" fill="#60af76" fill-opacity="1"></use></g><g><use xlink:href="#cmE7WtoZT" opacity="1" fill="#60af76" fill-opacity="1"></use></g></g></g></svg>