<?xml version="1.0" encoding="UTF-8" standalone="no"?>
<!DOCTYPE svg PUBLIC "-//W3C//DTD SVG 1.1//EN" "http://www.w3.org/Graphics/SVG/1.1/DTD/svg11.dtd">
<svg version="1.1" xmlns="http://www.w3.org/2000/svg" xmlns:xlink="http://www.w3.org/1999/xlink" preserveAspectRatio="xMidYMid meet" viewBox="0 0 1511.811 151.181" width="1511.81" height="151.18"><defs><path d="M872.03 76.61L887.78 87.11L924.03 87.11L940.78 76.61L924.03 65.61L889.28 65.61L872.03 76.61Z" id="a2BuOM5zvB"></path><path d="M924.48 65.86L940.23 76.36L976.48 76.36L993.23 65.86L976.48 54.86L941.73 54.86L924.48 65.86Z" id="b2VnmKEcfp"></path><path d="M924.48 87.36L940.23 97.86L976.48 97.86L993.23 87.36L976.48 76.36L941.73 76.36L924.48 87.36Z" id="dg8cvYY2i"></path><path d="M976.63 76.61L992.38 87.11L1028.63 87.11L1045.38 76.61L1028.63 65.61L993.88 65.61L976.63 76.61Z" id="b4l3kQ23lT"></path><path d="M976.63 55.11L992.38 65.61L1028.63 65.61L1045.38 55.11L1028.63 44.11L993.88 44.11L976.63 55.11Z" id="crE90IGyA"></path><path d="M1028.54 65.86L1044.29 76.36L1080.54 76.36L1097.29 65.86L1080.54 54.86L1045.79 54.86L1028.54 65.86Z" id="b8Qd1gJaU"></path><path d="M1028.54 44.36L1044.29 54.86L1080.54 54.86L1097.29 44.36L1080.54 33.36L1045.79 33.36L1028.54 44.36Z" id="cPJ0AtE5a"></path><path d="M1028.54 87.36L1044.29 97.86L1080.54 97.86L1097.29 87.36L1080.54 76.36L1045.79 76.36L1028.54 87.36Z" id="a16AhWzekc"></path><path d="M1080.65 98.11L1096.4 108.61L1132.65 108.61L1149.4 98.11L1132.65 87.11L1097.9 87.11L1080.65 98.11Z" id="b259JAT1hX"></path><path d="M1080.65 76.61L1096.4 87.11L1132.65 87.11L1149.4 76.61L1132.65 65.61L1097.9 65.61L1080.65 76.61Z" id="b4PmIMFmk"></path><path d="M1080.65 55.11L1096.4 65.61L1132.65 65.61L1149.4 55.11L1132.65 44.11L1097.9 44.11L1080.65 55.11Z" id="exLpYQMpm"></path><path d="M1028.54 22.33L1044.29 32.83L1080.54 32.83L1097.29 22.33L1080.54 11.33L1045.79 11.33L1028.54 22.33Z" id="c2hEEbLsov"></path><path d="M1028.54 0.83L1044.29 11.33L1080.54 11.33L1097.29 0.83L1080.54 -10.17L1045.79 -10.17L1028.54 0.83Z" id="asuZYyIhy"></path><path d="M975.66 11.58L991.41 22.08L1027.66 22.08L1044.41 11.58L1027.66 0.58L992.91 0.58L975.66 11.58Z" id="cpi99LTHN"></path><path d="M1080.65 33.08L1096.4 43.58L1132.65 43.58L1149.4 33.08L1132.65 22.08L1097.9 22.08L1080.65 33.08Z" id="bxMZzUHUJ"></path><path d="M1080.65 11L1096.4 21.5L1132.65 21.5L1149.4 11L1132.65 0L1097.9 0L1080.65 11Z" id="a7UaRtSV2"></path><path d="M1080.65 119.61L1096.4 130.11L1132.65 130.11L1149.4 119.61L1132.65 108.61L1097.9 108.61L1080.65 119.61Z" id="c11IZXRg1U"></path><path d="M1028.54 130.36L1044.29 140.86L1080.54 140.86L1097.29 130.36L1080.54 119.36L1045.79 119.36L1028.54 130.36Z" id="a2sikezQuP"></path><path d="M1132.68 22.33L1148.43 32.83L1184.68 32.83L1201.43 22.33L1184.68 11.33L1149.93 11.33L1132.68 22.33Z" id="beW4L81CW"></path><path d="M1132.68 43.83L1148.43 54.33L1184.68 54.33L1201.43 43.83L1184.68 32.83L1149.93 32.83L1132.68 43.83Z" id="iSkrfwEBt"></path><path d="M1132.68 65.86L1148.43 76.36L1184.68 76.36L1201.43 65.86L1184.68 54.86L1149.93 54.86L1132.68 65.86Z" id="aLPxZtqAu"></path><path d="M1132.68 151.36L1148.43 140.86L1184.68 140.86L1201.43 151.36L1184.68 162.36L1149.93 162.36L1132.68 151.36Z" id="gaqRrtlre"></path><path d="M1132.68 129.86L1148.43 119.36L1184.68 119.36L1201.43 129.86L1184.68 140.86L1149.93 140.86L1132.68 129.86Z" id="c980RH8xF"></path><path d="M1132.68 108.36L1148.43 97.86L1184.68 97.86L1201.43 108.36L1184.68 119.36L1149.93 119.36L1132.68 108.36Z" id="c28Bw5Htd"></path><path d="M1132.68 86.86L1148.43 76.36L1184.68 76.36L1201.43 86.86L1184.68 97.86L1149.93 97.86L1132.68 86.86Z" id="azGpQyktc"></path><path d="M1184.59 11.58L1200.34 22.08L1236.59 22.08L1253.34 11.58L1236.59 0.58L1201.84 0.58L1184.59 11.58Z" id="bZBHlw0mZ"></path><path d="M1184.59 33.34L1200.34 43.84L1236.59 43.84L1253.34 33.34L1236.59 22.34L1201.84 22.34L1184.59 33.34Z" id="b9TXOp4Bx"></path><path d="M1184.59 54.84L1200.34 65.34L1236.59 65.34L1253.34 54.84L1236.59 43.84L1201.84 43.84L1184.59 54.84Z" id="a1JmsMPXBf"></path><path d="M1184.59 76.87L1200.34 87.37L1236.59 87.37L1253.34 76.87L1236.59 65.87L1201.84 65.87L1184.59 76.87Z" id="a4etI6N0N"></path><path d="M1184.59 162.37L1200.34 151.87L1236.59 151.87L1253.34 162.37L1236.59 173.37L1201.84 173.37L1184.59 162.37Z" id="caRF1DNqN"></path><path d="M1184.59 140.87L1200.34 130.37L1236.59 130.37L1253.34 140.87L1236.59 151.87L1201.84 151.87L1184.59 140.87Z" id="cwSjrrJYQ"></path><path d="M1184.59 119.37L1200.34 108.87L1236.59 108.87L1253.34 119.37L1236.59 130.37L1201.84 130.37L1184.59 119.37Z" id="aTDY0vB5C"></path><path d="M1184.59 97.87L1200.34 87.37L1236.59 87.37L1253.34 97.87L1236.59 108.87L1201.84 108.87L1184.59 97.87Z" id="a5w9kfOiVk"></path><path d="M1236.55 22.59L1252.3 33.09L1288.55 33.09L1305.3 22.59L1288.55 11.59L1253.8 11.59L1236.55 22.59Z" id="omuO9upC5"></path><path d="M1236.55 44.09L1252.3 54.59L1288.55 54.59L1305.3 44.09L1288.55 33.09L1253.8 33.09L1236.55 44.09Z" id="hejLhooJQ"></path><path d="M1236.55 66.12L1252.3 76.62L1288.55 76.62L1305.3 66.12L1288.55 55.12L1253.8 55.12L1236.55 66.12Z" id="al8NinC7q"></path><path d="M1236.55 151.62L1252.3 141.12L1288.55 141.12L1305.3 151.62L1288.55 162.62L1253.8 162.62L1236.55 151.62Z" id="b27zZp0GcH"></path><path d="M1236.55 130.12L1252.3 119.62L1288.55 119.62L1305.3 130.12L1288.55 141.12L1253.8 141.12L1236.55 130.12Z" id="g4AWuFKFH"></path><path d="M1236.55 108.62L1252.3 98.12L1288.55 98.12L1305.3 108.62L1288.55 119.62L1253.8 119.62L1236.55 108.62Z" id="a1wXY4xSPt"></path><path d="M1236.55 87.12L1252.3 76.62L1288.55 76.62L1305.3 87.12L1288.55 98.12L1253.8 98.12L1236.55 87.12Z" id="beuzrMGV5"></path><path d="M1288.25 11.58L1304 22.08L1340.25 22.08L1357 11.58L1340.25 0.58L1305.5 0.58L1288.25 11.58Z" id="fg4zm0yen"></path><path d="M1288.25 33.08L1304 43.58L1340.25 43.58L1357 33.08L1340.25 22.08L1305.5 22.08L1288.25 33.08Z" id="c2Mwz6rYsp"></path><path d="M1288.25 76.61L1304 87.11L1340.25 87.11L1357 76.61L1340.25 65.61L1305.5 65.61L1288.25 76.61Z" id="egBN87FWU"></path><path d="M1288.25 140.61L1304 130.11L1340.25 130.11L1357 140.61L1340.25 151.61L1305.5 151.61L1288.25 140.61Z" id="bXDFKKLyi"></path><path d="M1288.25 119.11L1304 108.61L1340.25 108.61L1357 119.11L1340.25 130.11L1305.5 130.11L1288.25 119.11Z" id="b7s97LSYic"></path><path d="M1288.25 97.61L1304 87.11L1340.25 87.11L1357 97.61L1340.25 108.61L1305.5 108.61L1288.25 97.61Z" id="a5K7pS3IVY"></path><path d="M1339.41 22.33L1355.16 32.83L1391.41 32.83L1408.16 22.33L1391.41 11.33L1356.66 11.33L1339.41 22.33Z" id="f3HK7RlflG"></path><path d="M1288.25 55.11L1304 65.61L1340.25 65.61L1357 55.11L1340.25 44.11L1305.5 44.11L1288.25 55.11Z" id="b19rrDK4wg"></path><path d="M1339.41 43.83L1355.16 54.33L1391.41 54.33L1408.16 43.83L1391.41 32.83L1356.66 32.83L1339.41 43.83Z" id="bcqtL2L2j"></path><path d="M1339.41 65.86L1355.16 76.36L1391.41 76.36L1408.16 65.86L1391.41 54.86L1356.66 54.86L1339.41 65.86Z" id="aA3Ehslq"></path><path d="M1339.41 151.36L1355.16 140.86L1391.41 140.86L1408.16 151.36L1391.41 162.36L1356.66 162.36L1339.41 151.36Z" id="cfHzOtJDN"></path><path d="M1339.41 129.86L1355.16 119.36L1391.41 119.36L1408.16 129.86L1391.41 140.86L1356.66 140.86L1339.41 129.86Z" id="auvTBunOI"></path><path d="M1339.41 108.36L1355.16 97.86L1391.41 97.86L1408.16 108.36L1391.41 119.36L1356.66 119.36L1339.41 108.36Z" id="d4tTxS9yJ"></path><path d="M1339.41 86.86L1355.16 76.36L1391.41 76.36L1408.16 86.86L1391.41 97.86L1356.66 97.86L1339.41 86.86Z" id="b5iWOck3g"></path><path d="M1391.11 11.84L1406.86 22.34L1443.11 22.34L1459.86 11.84L1443.11 0.84L1408.36 0.84L1391.11 11.84Z" id="a1xEzSJw8w"></path><path d="M1391.11 33.34L1406.86 43.84L1443.11 43.84L1459.86 33.34L1443.11 22.34L1408.36 22.34L1391.11 33.34Z" id="aCcouOMw"></path><path d="M1391.11 55.37L1406.86 65.87L1443.11 65.87L1459.86 55.37L1443.11 44.37L1408.36 44.37L1391.11 55.37Z" id="b8kjSM9QP7"></path><path d="M1391.11 140.87L1406.86 130.37L1443.11 130.37L1459.86 140.87L1443.11 151.87L1408.36 151.87L1391.11 140.87Z" id="anwD4nxji"></path><path d="M1391.11 119.37L1406.86 108.87L1443.11 108.87L1459.86 119.37L1443.11 130.37L1408.36 130.37L1391.11 119.37Z" id="c1r6lltSAW"></path><path d="M1391.11 97.87L1406.86 87.37L1443.11 87.37L1459.86 97.87L1443.11 108.87L1408.36 108.87L1391.11 97.87Z" id="b1iFVPS1QP"></path><path d="M1391.11 76.37L1406.86 65.87L1443.11 65.87L1459.86 76.37L1443.11 87.37L1408.36 87.37L1391.11 76.37Z" id="c3sWQrmzZm"></path><path d="M1443.06 0.83L1458.81 11.33L1495.06 11.33L1511.81 0.83L1495.06 -10.17L1460.31 -10.17L1443.06 0.83Z" id="c2kd2HdPvU"></path><path d="M1443.06 22.33L1458.81 32.83L1495.06 32.83L1511.81 22.33L1495.06 11.33L1460.31 11.33L1443.06 22.33Z" id="d1C0NOugdp"></path><path d="M1443.06 44.36L1458.81 54.86L1495.06 54.86L1511.81 44.36L1495.06 33.36L1460.31 33.36L1443.06 44.36Z" id="a2AuZK1RBf"></path><path d="M1443.06 129.86L1458.81 119.36L1495.06 119.36L1511.81 129.86L1495.06 140.86L1460.31 140.86L1443.06 129.86Z" id="b13eiPai7u"></path><path d="M1443.06 108.36L1458.81 97.86L1495.06 97.86L1511.81 108.36L1495.06 119.36L1460.31 119.36L1443.06 108.36Z" id="b1gzpnMWsE"></path><path d="M1443.06 86.86L1458.81 76.36L1495.06 76.36L1511.81 86.86L1495.06 97.86L1460.31 97.86L1443.06 86.86Z" id="i1RkMQxGYH"></path><path d="M1443.06 65.36L1458.81 54.86L1495.06 54.86L1511.81 65.36L1495.06 76.36L1460.31 76.36L1443.06 65.36Z" id="e1GmxTrlRD"></path><path d="M1495.26 33.08L1511.01 43.58L1547.26 43.58L1564.01 33.08L1547.26 22.08L1512.51 22.08L1495.26 33.08Z" id="gEJj8seah"></path><path d="M1495.26 54.58L1511.01 65.08L1547.26 65.08L1564.01 54.58L1547.26 43.58L1512.51 43.58L1495.26 54.58Z" id="c37yQjVFdE"></path><path d="M1495.26 76.61L1511.01 87.11L1547.26 87.11L1564.01 76.61L1547.26 65.61L1512.51 65.61L1495.26 76.61Z" id="a34t6dRMqi"></path><path d="M1495.26 162.11L1511.01 151.61L1547.26 151.61L1564.01 162.11L1547.26 173.11L1512.51 173.11L1495.26 162.11Z" id="d4zkPDCgaA"></path><path d="M1495.26 140.61L1511.01 130.11L1547.26 130.11L1564.01 140.61L1547.26 151.61L1512.51 151.61L1495.26 140.61Z" id="a3nwRCgy0"></path><path d="M1495.26 119.11L1511.01 108.61L1547.26 108.61L1564.01 119.11L1547.26 130.11L1512.51 130.11L1495.26 119.11Z" id="a10OL138xe"></path><path d="M1495.26 97.61L1511.01 87.11L1547.26 87.11L1564.01 97.61L1547.26 108.61L1512.51 108.61L1495.26 97.61Z" id="f3SS365gl"></path></defs><g><g><g><use xlink:href="#a2BuOM5zvB" opacity="1" fill="#ecc21c" fill-opacity="1"></use><g><use xlink:href="#a2BuOM5zvB" opacity="1" fill-opacity="0" stroke="#000000" stroke-width="1" stroke-opacity="1"></use></g></g><g><use xlink:href="#b2VnmKEcfp" opacity="1" fill="#ecc21c" fill-opacity="1"></use><g><use xlink:href="#b2VnmKEcfp" opacity="1" fill-opacity="0" stroke="#000000" stroke-width="1" stroke-opacity="1"></use></g></g><g><use xlink:href="#dg8cvYY2i" opacity="1" fill="#ecc21c" fill-opacity="1"></use><g><use xlink:href="#dg8cvYY2i" opacity="1" fill-opacity="0" stroke="#000000" stroke-width="1" stroke-opacity="1"></use></g></g><g><use xlink:href="#b4l3kQ23lT" opacity="1" fill="#ecc21c" fill-opacity="1"></use><g><use xlink:href="#b4l3kQ23lT" opacity="1" fill-opacity="0" stroke="#000000" stroke-width="1" stroke-opacity="1"></use></g></g><g><use xlink:href="#crE90IGyA" opacity="1" fill="#ecc21c" fill-opacity="1"></use><g><use xlink:href="#crE90IGyA" opacity="1" fill-opacity="0" stroke="#000000" stroke-width="1" stroke-opacity="1"></use></g></g><g><use xlink:href="#b8Qd1gJaU" opacity="1" fill="#ecc21c" fill-opacity="1"></use><g><use xlink:href="#b8Qd1gJaU" opacity="1" fill-opacity="0" stroke="#000000" stroke-width="1" stroke-opacity="1"></use></g></g><g><use xlink:href="#cPJ0AtE5a" opacity="1" fill="#ecc21c" fill-opacity="1"></use><g><use xlink:href="#cPJ0AtE5a" opacity="1" fill-opacity="0" stroke="#000000" stroke-width="1" stroke-opacity="1"></use></g></g><g><use xlink:href="#a16AhWzekc" opacity="1" fill="#ecc21c" fill-opacity="1"></use><g><use xlink:href="#a16AhWzekc" opacity="1" fill-opacity="0" stroke="#000000" stroke-width="1" stroke-opacity="1"></use></g></g><g><use xlink:href="#b259JAT1hX" opacity="1" fill="#ecc21c" fill-opacity="1"></use><g><use xlink:href="#b259JAT1hX" opacity="1" fill-opacity="0" stroke="#000000" stroke-width="1" stroke-opacity="1"></use></g></g><g><use xlink:href="#b4PmIMFmk" opacity="1" fill="#ecc21c" fill-opacity="1"></use><g><use xlink:href="#b4PmIMFmk" opacity="1" fill-opacity="0" stroke="#000000" stroke-width="1" stroke-opacity="1"></use></g></g><g><use xlink:href="#exLpYQMpm" opacity="1" fill="#ecc21c" fill-opacity="1"></use><g><use xlink:href="#exLpYQMpm" opacity="1" fill-opacity="0" stroke="#000000" stroke-width="1" stroke-opacity="1"></use></g></g><g><use xlink:href="#c2hEEbLsov" opacity="1" fill="#ecc21c" fill-opacity="1"></use><g><use xlink:href="#c2hEEbLsov" opacity="1" fill-opacity="0" stroke="#000000" stroke-width="1" stroke-opacity="1"></use></g></g><g><use xlink:href="#asuZYyIhy" opacity="1" fill="#ecc21c" fill-opacity="1"></use><g><use xlink:href="#asuZYyIhy" opacity="1" fill-opacity="0" stroke="#000000" stroke-width="1" stroke-opacity="1"></use></g></g><g><use xlink:href="#cpi99LTHN" opacity="1" fill="#ecc21c" fill-opacity="1"></use><g><use xlink:href="#cpi99LTHN" opacity="1" fill-opacity="0" stroke="#000000" stroke-width="1" stroke-opacity="1"></use></g></g><g><use xlink:href="#bxMZzUHUJ" opacity="1" fill="#ecc21c" fill-opacity="1"></use><g><use xlink:href="#bxMZzUHUJ" opacity="1" fill-opacity="0" stroke="#000000" stroke-width="1" stroke-opacity="1"></use></g></g><g><use xlink:href="#a7UaRtSV2" opacity="1" fill="#ecc21c" fill-opacity="1"></use><g><use xlink:href="#a7UaRtSV2" opacity="1" fill-opacity="0" stroke="#000000" stroke-width="1" stroke-opacity="1"></use></g></g><g><use xlink:href="#c11IZXRg1U" opacity="1" fill="#ecc21c" fill-opacity="1"></use><g><use xlink:href="#c11IZXRg1U" opacity="1" fill-opacity="0" stroke="#000000" stroke-width="1" stroke-opacity="1"></use></g></g><g><use xlink:href="#a2sikezQuP" opacity="1" fill="#ecc21c" fill-opacity="1"></use><g><use xlink:href="#a2sikezQuP" opacity="1" fill-opacity="0" stroke="#000000" stroke-width="1" stroke-opacity="1"></use></g></g><g><use xlink:href="#beW4L81CW" opacity="1" fill="#ecc21c" fill-opacity="1"></use><g><use xlink:href="#beW4L81CW" opacity="1" fill-opacity="0" stroke="#000000" stroke-width="1" stroke-opacity="1"></use></g></g><g><use xlink:href="#iSkrfwEBt" opacity="1" fill="#ecc21c" fill-opacity="1"></use><g><use xlink:href="#iSkrfwEBt" opacity="1" fill-opacity="0" stroke="#000000" stroke-width="1" stroke-opacity="1"></use></g></g><g><use xlink:href="#aLPxZtqAu" opacity="1" fill="#ecc21c" fill-opacity="1"></use><g><use xlink:href="#aLPxZtqAu" opacity="1" fill-opacity="0" stroke="#000000" stroke-width="1" stroke-opacity="1"></use></g></g><g><use xlink:href="#gaqRrtlre" opacity="1" fill="#ecc21c" fill-opacity="1"></use><g><use xlink:href="#gaqRrtlre" opacity="1" fill-opacity="0" stroke="#000000" stroke-width="1" stroke-opacity="1"></use></g></g><g><use xlink:href="#c980RH8xF" opacity="1" fill="#ecc21c" fill-opacity="1"></use><g><use xlink:href="#c980RH8xF" opacity="1" fill-opacity="0" stroke="#000000" stroke-width="1" stroke-opacity="1"></use></g></g><g><use xlink:href="#c28Bw5Htd" opacity="1" fill="#ecc21c" fill-opacity="1"></use><g><use xlink:href="#c28Bw5Htd" opacity="1" fill-opacity="0" stroke="#000000" stroke-width="1" stroke-opacity="1"></use></g></g><g><use xlink:href="#azGpQyktc" opacity="1" fill="#ecc21c" fill-opacity="1"></use><g><use xlink:href="#azGpQyktc" opacity="1" fill-opacity="0" stroke="#000000" stroke-width="1" stroke-opacity="1"></use></g></g><g><use xlink:href="#bZBHlw0mZ" opacity="1" fill="#ecc21c" fill-opacity="1"></use><g><use xlink:href="#bZBHlw0mZ" opacity="1" fill-opacity="0" stroke="#000000" stroke-width="1" stroke-opacity="1"></use></g></g><g><use xlink:href="#b9TXOp4Bx" opacity="1" fill="#ecc21c" fill-opacity="1"></use><g><use xlink:href="#b9TXOp4Bx" opacity="1" fill-opacity="0" stroke="#000000" stroke-width="1" stroke-opacity="1"></use></g></g><g><use xlink:href="#a1JmsMPXBf" opacity="1" fill="#ecc21c" fill-opacity="1"></use><g><use xlink:href="#a1JmsMPXBf" opacity="1" fill-opacity="0" stroke="#000000" stroke-width="1" stroke-opacity="1"></use></g></g><g><use xlink:href="#a4etI6N0N" opacity="1" fill="#ecc21c" fill-opacity="1"></use><g><use xlink:href="#a4etI6N0N" opacity="1" fill-opacity="0" stroke="#000000" stroke-width="1" stroke-opacity="1"></use></g></g><g><use xlink:href="#caRF1DNqN" opacity="1" fill="#ecc21c" fill-opacity="1"></use><g><use xlink:href="#caRF1DNqN" opacity="1" fill-opacity="0" stroke="#000000" stroke-width="1" stroke-opacity="1"></use></g></g><g><use xlink:href="#cwSjrrJYQ" opacity="1" fill="#ecc21c" fill-opacity="1"></use><g><use xlink:href="#cwSjrrJYQ" opacity="1" fill-opacity="0" stroke="#000000" stroke-width="1" stroke-opacity="1"></use></g></g><g><use xlink:href="#aTDY0vB5C" opacity="1" fill="#ecc21c" fill-opacity="1"></use><g><use xlink:href="#aTDY0vB5C" opacity="1" fill-opacity="0" stroke="#000000" stroke-width="1" stroke-opacity="1"></use></g></g><g><use xlink:href="#a5w9kfOiVk" opacity="1" fill="#ecc21c" fill-opacity="1"></use><g><use xlink:href="#a5w9kfOiVk" opacity="1" fill-opacity="0" stroke="#000000" stroke-width="1" stroke-opacity="1"></use></g></g><g><use xlink:href="#omuO9upC5" opacity="1" fill="#ecc21c" fill-opacity="1"></use><g><use xlink:href="#omuO9upC5" opacity="1" fill-opacity="0" stroke="#000000" stroke-width="1" stroke-opacity="1"></use></g></g><g><use xlink:href="#hejLhooJQ" opacity="1" fill="#ecc21c" fill-opacity="1"></use><g><use xlink:href="#hejLhooJQ" opacity="1" fill-opacity="0" stroke="#000000" stroke-width="1" stroke-opacity="1"></use></g></g><g><use xlink:href="#al8NinC7q" opacity="1" fill="#ecc21c" fill-opacity="1"></use><g><use xlink:href="#al8NinC7q" opacity="1" fill-opacity="0" stroke="#000000" stroke-width="1" stroke-opacity="1"></use></g></g><g><use xlink:href="#b27zZp0GcH" opacity="1" fill="#ecc21c" fill-opacity="1"></use><g><use xlink:href="#b27zZp0GcH" opacity="1" fill-opacity="0" stroke="#000000" stroke-width="1" stroke-opacity="1"></use></g></g><g><use xlink:href="#g4AWuFKFH" opacity="1" fill="#ecc21c" fill-opacity="1"></use><g><use xlink:href="#g4AWuFKFH" opacity="1" fill-opacity="0" stroke="#000000" stroke-width="1" stroke-opacity="1"></use></g></g><g><use xlink:href="#a1wXY4xSPt" opacity="1" fill="#ecc21c" fill-opacity="1"></use><g><use xlink:href="#a1wXY4xSPt" opacity="1" fill-opacity="0" stroke="#000000" stroke-width="1" stroke-opacity="1"></use></g></g><g><use xlink:href="#beuzrMGV5" opacity="1" fill="#ecc21c" fill-opacity="1"></use><g><use xlink:href="#beuzrMGV5" opacity="1" fill-opacity="0" stroke="#000000" stroke-width="1" stroke-opacity="1"></use></g></g><g><use xlink:href="#fg4zm0yen" opacity="1" fill="#ecc21c" fill-opacity="1"></use><g><use xlink:href="#fg4zm0yen" opacity="1" fill-opacity="0" stroke="#000000" stroke-width="1" stroke-opacity="1"></use></g></g><g><use xlink:href="#c2Mwz6rYsp" opacity="1" fill="#ecc21c" fill-opacity="1"></use><g><use xlink:href="#c2Mwz6rYsp" opacity="1" fill-opacity="0" stroke="#000000" stroke-width="1" stroke-opacity="1"></use></g></g><g><use xlink:href="#egBN87FWU" opacity="1" fill="#ecc21c" fill-opacity="1"></use><g><use xlink:href="#egBN87FWU" opacity="1" fill-opacity="0" stroke="#000000" stroke-width="1" stroke-opacity="1"></use></g></g><g><use xlink:href="#bXDFKKLyi" opacity="1" fill="#ecc21c" fill-opacity="1"></use><g><use xlink:href="#bXDFKKLyi" opacity="1" fill-opacity="0" stroke="#000000" stroke-width="1" stroke-opacity="1"></use></g></g><g><use xlink:href="#b7s97LSYic" opacity="1" fill="#ecc21c" fill-opacity="1"></use><g><use xlink:href="#b7s97LSYic" opacity="1" fill-opacity="0" stroke="#000000" stroke-width="1" stroke-opacity="1"></use></g></g><g><use xlink:href="#a5K7pS3IVY" opacity="1" fill="#ecc21c" fill-opacity="1"></use><g><use xlink:href="#a5K7pS3IVY" opacity="1" fill-opacity="0" stroke="#000000" stroke-width="1" stroke-opacity="1"></use></g></g><g><use xlink:href="#f3HK7RlflG" opacity="1" fill="#ecc21c" fill-opacity="1"></use><g><use xlink:href="#f3HK7RlflG" opacity="1" fill-opacity="0" stroke="#000000" stroke-width="1" stroke-opacity="1"></use></g></g><g><use xlink:href="#b19rrDK4wg" opacity="1" fill="#ecc21c" fill-opacity="1"></use><g><use xlink:href="#b19rrDK4wg" opacity="1" fill-opacity="0" stroke="#000000" stroke-width="1" stroke-opacity="1"></use></g></g><g><use xlink:href="#bcqtL2L2j" opacity="1" fill="#ecc21c" fill-opacity="1"></use><g><use xlink:href="#bcqtL2L2j" opacity="1" fill-opacity="0" stroke="#000000" stroke-width="1" stroke-opacity="1"></use></g></g><g><use xlink:href="#aA3Ehslq" opacity="1" fill="#ecc21c" fill-opacity="1"></use><g><use xlink:href="#aA3Ehslq" opacity="1" fill-opacity="0" stroke="#000000" stroke-width="1" stroke-opacity="1"></use></g></g><g><use xlink:href="#cfHzOtJDN" opacity="1" fill="#ecc21c" fill-opacity="1"></use><g><use xlink:href="#cfHzOtJDN" opacity="1" fill-opacity="0" stroke="#000000" stroke-width="1" stroke-opacity="1"></use></g></g><g><use xlink:href="#auvTBunOI" opacity="1" fill="#ecc21c" fill-opacity="1"></use><g><use xlink:href="#auvTBunOI" opacity="1" fill-opacity="0" stroke="#000000" stroke-width="1" stroke-opacity="1"></use></g></g><g><use xlink:href="#d4tTxS9yJ" opacity="1" fill="#ecc21c" fill-opacity="1"></use><g><use xlink:href="#d4tTxS9yJ" opacity="1" fill-opacity="0" stroke="#000000" stroke-width="1" stroke-opacity="1"></use></g></g><g><use xlink:href="#b5iWOck3g" opacity="1" fill="#ecc21c" fill-opacity="1"></use><g><use xlink:href="#b5iWOck3g" opacity="1" fill-opacity="0" stroke="#000000" stroke-width="1" stroke-opacity="1"></use></g></g><g><use xlink:href="#a1xEzSJw8w" opacity="1" fill="#ecc21c" fill-opacity="1"></use><g><use xlink:href="#a1xEzSJw8w" opacity="1" fill-opacity="0" stroke="#000000" stroke-width="1" stroke-opacity="1"></use></g></g><g><use xlink:href="#aCcouOMw" opacity="1" fill="#ecc21c" fill-opacity="1"></use><g><use xlink:href="#aCcouOMw" opacity="1" fill-opacity="0" stroke="#000000" stroke-width="1" stroke-opacity="1"></use></g></g><g><use xlink:href="#b8kjSM9QP7" opacity="1" fill="#ecc21c" fill-opacity="1"></use><g><use xlink:href="#b8kjSM9QP7" opacity="1" fill-opacity="0" stroke="#000000" stroke-width="1" stroke-opacity="1"></use></g></g><g><use xlink:href="#anwD4nxji" opacity="1" fill="#ecc21c" fill-opacity="1"></use><g><use xlink:href="#anwD4nxji" opacity="1" fill-opacity="0" stroke="#000000" stroke-width="1" stroke-opacity="1"></use></g></g><g><use xlink:href="#c1r6lltSAW" opacity="1" fill="#ecc21c" fill-opacity="1"></use><g><use xlink:href="#c1r6lltSAW" opacity="1" fill-opacity="0" stroke="#000000" stroke-width="1" stroke-opacity="1"></use></g></g><g><use xlink:href="#b1iFVPS1QP" opacity="1" fill="#ecc21c" fill-opacity="1"></use><g><use xlink:href="#b1iFVPS1QP" opacity="1" fill-opacity="0" stroke="#000000" stroke-width="1" stroke-opacity="1"></use></g></g><g><use xlink:href="#c3sWQrmzZm" opacity="1" fill="#ecc21c" fill-opacity="1"></use><g><use xlink:href="#c3sWQrmzZm" opacity="1" fill-opacity="0" stroke="#000000" stroke-width="1" stroke-opacity="1"></use></g></g><g><use xlink:href="#c2kd2HdPvU" opacity="1" fill="#ecc21c" fill-opacity="1"></use><g><use xlink:href="#c2kd2HdPvU" opacity="1" fill-opacity="0" stroke="#000000" stroke-width="1" stroke-opacity="1"></use></g></g><g><use xlink:href="#d1C0NOugdp" opacity="1" fill="#ecc21c" fill-opacity="1"></use><g><use xlink:href="#d1C0NOugdp" opacity="1" fill-opacity="0" stroke="#000000" stroke-width="1" stroke-opacity="1"></use></g></g><g><use xlink:href="#a2AuZK1RBf" opacity="1" fill="#ecc21c" fill-opacity="1"></use><g><use xlink:href="#a2AuZK1RBf" opacity="1" fill-opacity="0" stroke="#000000" stroke-width="1" stroke-opacity="1"></use></g></g><g><use xlink:href="#b13eiPai7u" opacity="1" fill="#ecc21c" fill-opacity="1"></use><g><use xlink:href="#b13eiPai7u" opacity="1" fill-opacity="0" stroke="#000000" stroke-width="1" stroke-opacity="1"></use></g></g><g><use xlink:href="#b1gzpnMWsE" opacity="1" fill="#ecc21c" fill-opacity="1"></use><g><use xlink:href="#b1gzpnMWsE" opacity="1" fill-opacity="0" stroke="#000000" stroke-width="1" stroke-opacity="1"></use></g></g><g><use xlink:href="#i1RkMQxGYH" opacity="1" fill="#ecc21c" fill-opacity="1"></use><g><use xlink:href="#i1RkMQxGYH" opacity="1" fill-opacity="0" stroke="#000000" stroke-width="1" stroke-opacity="1"></use></g></g><g><use xlink:href="#e1GmxTrlRD" opacity="1" fill="#ecc21c" fill-opacity="1"></use><g><use xlink:href="#e1GmxTrlRD" opacity="1" fill-opacity="0" stroke="#000000" stroke-width="1" stroke-opacity="1"></use></g></g><g><use xlink:href="#gEJj8seah" opacity="1" fill="#ecc21c" fill-opacity="1"></use><g><use xlink:href="#gEJj8seah" opacity="1" fill-opacity="0" stroke="#000000" stroke-width="1" stroke-opacity="1"></use></g></g><g><use xlink:href="#c37yQjVFdE" opacity="1" fill="#ecc21c" fill-opacity="1"></use><g><use xlink:href="#c37yQjVFdE" opacity="1" fill-opacity="0" stroke="#000000" stroke-width="1" stroke-opacity="1"></use></g></g><g><use xlink:href="#a34t6dRMqi" opacity="1" fill="#ecc21c" fill-opacity="1"></use><g><use xlink:href="#a34t6dRMqi" opacity="1" fill-opacity="0" stroke="#000000" stroke-width="1" stroke-opacity="1"></use></g></g><g><use xlink:href="#d4zkPDCgaA" opacity="1" fill="#ecc21c" fill-opacity="1"></use><g><use xlink:href="#d4zkPDCgaA" opacity="1" fill-opacity="0" stroke="#000000" stroke-width="1" stroke-opacity="1"></use></g></g><g><use xlink:href="#a3nwRCgy0" opacity="1" fill="#ecc21c" fill-opacity="1"></use><g><use xlink:href="#a3nwRCgy0" opacity="1" fill-opacity="0" stroke="#000000" stroke-width="1" stroke-opacity="1"></use></g></g><g><use xlink:href="#a10OL138xe" opacity="1" fill="#ecc21c" fill-opacity="1"></use><g><use xlink:href="#a10OL138xe" opacity="1" fill-opacity="0" stroke="#000000" stroke-width="1" stroke-opacity="1"></use></g></g><g><use xlink:href="#f3SS365gl" opacity="1" fill="#ecc21c" fill-opacity="1"></use><g><use xlink:href="#f3SS365gl" opacity="1" fill-opacity="0" stroke="#000000" stroke-width="1" stroke-opacity="1"></use></g></g></g></g></svg>